<svg width="17" height="17" viewBox="0 0 17 17" fill="none" xmlns="http://www.w3.org/2000/svg">
<path d="M7.5 4.99935C7.5 4.53911 7.8731 4.16602 8.33333 4.16602C8.79357 4.16602 9.16667 4.53911 9.16667 4.99935V9.16602C9.16667 9.62625 8.79357 9.99935 8.33333 9.99935C7.8731 9.99935 7.5 9.62625 7.5 9.16602V4.99935ZM7.5 11.666C7.5 11.2058 7.8731 10.8327 8.33333 10.8327C8.79357 10.8327 9.16667 11.2058 9.16667 11.666C9.16667 12.1263 8.79357 12.4993 8.33333 12.4993C7.8731 12.4993 7.5 12.1263 7.5 11.666Z" fill="#FF5E5B"/>
<path d="M16.4225 4.41083L12.2558 0.244168C12.1786 0.166632 12.0868 0.105142 11.9856 0.0632378C11.8845 0.0213335 11.7761 -0.000157874 11.6667 8.73061e-07H5C4.89055 -0.000157874 4.78214 0.0213335 4.68103 0.0632378C4.57992 0.105142 4.48809 0.166632 4.41083 0.244168L0.244168 4.41083C0.166632 4.48809 0.105142 4.57992 0.0632378 4.68103C0.0213335 4.78214 -0.000157874 4.89055 8.73061e-07 5V11.6667C8.73061e-07 11.8883 0.0875009 12.1 0.244168 12.2558L4.41083 16.4225C4.48809 16.5 4.57992 16.5615 4.68103 16.6034C4.78214 16.6453 4.89055 16.6668 5 16.6667H11.6667C11.8883 16.6667 12.1 16.5792 12.2558 16.4225L16.4225 12.2558C16.5 12.1786 16.5615 12.0868 16.6034 11.9856C16.6453 11.8845 16.6668 11.7761 16.6667 11.6667V5C16.6668 4.89055 16.6453 4.78214 16.6034 4.68103C16.5615 4.57992 16.5 4.48809 16.4225 4.41083ZM15 11.3217L11.3217 15H5.345L1.66667 11.3217V5.345L5.345 1.66667H11.3217L15 5.345V11.3217Z" fill="#FF5E5B"/>
</svg>
