<svg width="11" height="17" viewBox="0 0 11 17" fill="none" xmlns="http://www.w3.org/2000/svg">
<path fill-rule="evenodd" clip-rule="evenodd" d="M8.66667 0.583984C9.08659 0.583984 9.48932 0.750799 9.78625 1.04773C10.0832 1.34466 10.25 1.74739 10.25 2.16732C10.25 2.58724 10.0832 2.98997 9.78625 3.2869C9.48932 3.58384 9.08659 3.75065 8.66667 3.75065C8.24674 3.75065 7.84401 3.58384 7.54708 3.2869C7.25015 2.98997 7.08333 2.58724 7.08333 2.16732C7.08333 1.74739 7.25015 1.34466 7.54708 1.04773C7.84401 0.750799 8.24674 0.583984 8.66667 0.583984ZM8.66667 6.91732C9.08659 6.91732 9.48932 7.08413 9.78625 7.38107C10.0832 7.678 10.25 8.08072 10.25 8.50065C10.25 8.92058 10.0832 9.3233 9.78625 9.62024C9.48932 9.91717 9.08659 10.084 8.66667 10.084C8.24674 10.084 7.84401 9.91717 7.54708 9.62024C7.25015 9.3233 7.08333 8.92058 7.08333 8.50065C7.08333 8.08072 7.25015 7.678 7.54708 7.38107C7.84401 7.08413 8.24674 6.91732 8.66667 6.91732ZM2.33333 13.2507C2.75326 13.2507 3.15599 13.4175 3.45292 13.7144C3.74985 14.0113 3.91667 14.4141 3.91667 14.834C3.91667 15.2539 3.74985 15.6566 3.45292 15.9536C3.15599 16.2505 2.75326 16.4173 2.33333 16.4173C1.91341 16.4173 1.51068 16.2505 1.21375 15.9536C0.916815 15.6566 0.75 15.2539 0.75 14.834C0.75 14.4141 0.916815 14.0113 1.21375 13.7144C1.51068 13.4175 1.91341 13.2507 2.33333 13.2507ZM8.66667 13.2507C9.08659 13.2507 9.48932 13.4175 9.78625 13.7144C10.0832 14.0113 10.25 14.4141 10.25 14.834C10.25 15.2539 10.0832 15.6566 9.78625 15.9536C9.48932 16.2505 9.08659 16.4173 8.66667 16.4173C8.24674 16.4173 7.84401 16.2505 7.54708 15.9536C7.25015 15.6566 7.08333 15.2539 7.08333 14.834C7.08333 14.4141 7.25015 14.0113 7.54708 13.7144C7.84401 13.4175 8.24674 13.2507 8.66667 13.2507ZM2.33333 0.583984C2.75326 0.583984 3.15599 0.750799 3.45292 1.04773C3.74985 1.34466 3.91667 1.74739 3.91667 2.16732C3.91667 2.58724 3.74985 2.98997 3.45292 3.2869C3.15599 3.58384 2.75326 3.75065 2.33333 3.75065C1.91341 3.75065 1.51068 3.58384 1.21375 3.2869C0.916815 2.98997 0.75 2.58724 0.75 2.16732C0.75 1.74739 0.916815 1.34466 1.21375 1.04773C1.51068 0.750799 1.91341 0.583984 2.33333 0.583984ZM2.33333 6.91732C2.75326 6.91732 3.15599 7.08413 3.45292 7.38107C3.74985 7.678 3.91667 8.08072 3.91667 8.50065C3.91667 8.92058 3.74985 9.3233 3.45292 9.62024C3.15599 9.91717 2.75326 10.084 2.33333 10.084C1.91341 10.084 1.51068 9.91717 1.21375 9.62024C0.916815 9.3233 0.75 8.92058 0.75 8.50065C0.75 8.08072 0.916815 7.678 1.21375 7.38107C1.51068 7.08413 1.91341 6.91732 2.33333 6.91732Z" fill="black"/>
</svg>
